<svg width="64" height="64" viewBox="0 0 64 64" fill="none" xmlns="http://www.w3.org/2000/svg">
<g filter="url(#filter0_d_551_22473)">
<rect x="2" y="1" width="60" height="60" rx="12" fill="#303C50"/>
<rect x="2.75" y="1.75" width="58.5" height="58.5" rx="11.25" stroke="#38445A" stroke-width="1.5"/>
<path d="M25.75 29.7505V24.7505C25.75 23.0929 26.4085 21.5032 27.5806 20.3311C28.7527 19.159 30.3424 18.5005 32 18.5005C33.6576 18.5005 35.2473 19.159 36.4194 20.3311C37.5915 21.5032 38.25 23.0929 38.25 24.7505V29.7505M23.25 29.7505H40.75C42.1307 29.7505 43.25 30.8698 43.25 32.2505V41.0005C43.25 42.3812 42.1307 43.5005 40.75 43.5005H23.25C21.8693 43.5005 20.75 42.3812 20.75 41.0005V32.2505C20.75 30.8698 21.8693 29.7505 23.25 29.7505Z" stroke="#C4C4C4" stroke-width="2.5" stroke-linecap="round" stroke-linejoin="round"/>
</g>
<defs>
<filter id="filter0_d_551_22473" x="0" y="0" width="64" height="64" filterUnits="userSpaceOnUse" color-interpolation-filters="sRGB">
<feFlood flood-opacity="0" result="BackgroundImageFix"/>
<feColorMatrix in="SourceAlpha" type="matrix" values="0 0 0 0 0 0 0 0 0 0 0 0 0 0 0 0 0 0 127 0" result="hardAlpha"/>
<feOffset dy="1"/>
<feGaussianBlur stdDeviation="1"/>
<feColorMatrix type="matrix" values="0 0 0 0 0.0627451 0 0 0 0 0.0941176 0 0 0 0 0.156863 0 0 0 0.05 0"/>
<feBlend mode="normal" in2="BackgroundImageFix" result="effect1_dropShadow_551_22473"/>
<feBlend mode="normal" in="SourceGraphic" in2="effect1_dropShadow_551_22473" result="shape"/>
</filter>
</defs>
</svg>
