<svg width="18" height="18" viewBox="0 0 18 18" fill="none" xmlns="http://www.w3.org/2000/svg">
<path d="M4.0498 1.5752H13.9498C14.7748 1.5752 15.4498 2.2502 15.4498 3.0752V4.7252C15.4498 5.3252 15.0748 6.0752 14.6998 6.4502L11.4748 9.30019C11.0248 9.67519 10.7248 10.4252 10.7248 11.0252V14.2502C10.7248 14.7002 10.4248 15.3002 10.0498 15.5252L8.9998 16.2002C8.02481 16.8002 6.6748 16.1252 6.6748 14.9252V10.9502C6.6748 10.4252 6.3748 9.7502 6.0748 9.3752L3.2248 6.3752C2.8498 6.0002 2.5498 5.3252 2.5498 4.8752V3.1502C2.5498 2.2502 3.2248 1.5752 4.0498 1.5752Z" stroke="#697B7B" stroke-width="1.5" stroke-miterlimit="10" stroke-linecap="round" stroke-linejoin="round"/>
<path d="M8.1975 1.5752L4.5 7.5002" stroke="#697B7B" stroke-width="1.5" stroke-miterlimit="10" stroke-linecap="round" stroke-linejoin="round"/>
</svg>
