<svg width="154" height="165" viewBox="0 0 154 165" fill="none" xmlns="http://www.w3.org/2000/svg">
<path d="M52.9529 142.554L86.6786 146.865C114.783 150.457 127.462 140.652 131.054 112.547L135.365 78.8213C138.957 50.7166 129.152 38.0379 101.047 34.4458L67.3212 30.1353C39.2165 26.5433 26.5378 36.3483 22.9457 64.453L18.6352 98.1787C15.0432 126.283 24.8482 138.962 52.9529 142.554Z" fill="#697B7B" stroke="#22353E" stroke-width="1.5" stroke-linecap="round" stroke-linejoin="round"/>
<path d="M61.5743 75.1032C67.783 75.8968 73.4595 71.5069 74.253 65.2982C75.0465 59.0894 70.6567 53.413 64.4479 52.6194C58.2392 51.8259 52.5628 56.2158 51.7692 62.4245C50.9757 68.6332 55.3656 74.3097 61.5743 75.1032Z" stroke="#22353E" stroke-width="1.5" stroke-linecap="round" stroke-linejoin="round"/>
<path d="M68.0719 125.094H102.072C130.405 125.094 141.739 113.761 141.739 85.4274V51.4274C141.739 23.0941 130.405 11.7607 102.072 11.7607H68.0719C39.7386 11.7607 28.4053 23.0941 28.4053 51.4274V85.4274C28.4053 113.761 39.7386 125.094 68.0719 125.094Z" fill="#697B7B" stroke="#22353E" stroke-width="1.5" stroke-linecap="round" stroke-linejoin="round"/>
<path d="M68.0726 57.0944C74.3318 57.0944 79.4059 52.0203 79.4059 45.7611C79.4059 39.5018 74.3318 34.4277 68.0726 34.4277C61.8134 34.4277 56.7393 39.5018 56.7393 45.7611C56.7393 52.0203 61.8134 57.0944 68.0726 57.0944Z" stroke="#22353E" stroke-width="1.5" stroke-linecap="round" stroke-linejoin="round"/>
<path d="M32.2021 107.811L60.1388 89.0539C64.6155 86.0506 71.0755 86.3906 75.0988 89.8473L76.9688 91.4906C81.3888 95.2873 88.5288 95.2873 92.9488 91.4906L116.522 71.2606C120.942 67.4639 128.082 67.4639 132.502 71.2606L141.739 79.1939" stroke="#22353E" stroke-width="1.5" stroke-linecap="round" stroke-linejoin="round"/>
</svg>
