<svg width="16" height="16" viewBox="0 0 16 16" fill="none" xmlns="http://www.w3.org/2000/svg">
<path d="M8 4.71802V8.00007L10.0513 10.0514" fill="white"/>
<path d="M8 4.71802V8.00007L10.0513 10.0514" stroke="white" stroke-width="1.5" stroke-linecap="round" stroke-linejoin="round"/>
<path d="M11.3076 14.7314C10.4509 15.1532 9.50261 15.4174 8.5 15.4834V15.252C9.46097 15.1867 10.3701 14.9339 11.1924 14.5312L11.3076 14.7314ZM0.75 8.5C0.995732 12.1161 3.88388 15.0043 7.5 15.25V15.4814C3.75636 15.235 0.765032 12.2437 0.518555 8.5H0.75ZM15.4834 8.5C15.4174 9.50261 15.1532 10.4509 14.7314 11.3076L14.5312 11.1924C14.9339 10.3701 15.1867 9.46097 15.252 8.5H15.4834ZM13.6436 3.06348C14.6958 4.26547 15.3699 5.8052 15.4814 7.5H15.25C15.1391 5.86863 14.4906 4.38631 13.4795 3.22656L13.6436 3.06348ZM3.30078 3.91406L3.16797 3.91309L3.30176 3.7793L3.30078 3.91406ZM8.5 0.523438C10.0824 0.644178 11.6371 1.26415 12.9102 2.38184L12.7725 2.51953C11.6128 1.50888 10.1309 0.859837 8.5 0.749023V0.523438ZM7.5 0.744141C5.96513 0.833758 4.45905 1.40902 3.22852 2.46973L3.09082 2.33105C4.28864 1.29288 5.81841 0.628295 7.5 0.517578V0.744141ZM1.58984 2.33691L1.58887 2.20312L1.72461 2.20215L1.58984 2.33691Z" fill="white" stroke="white"/>
</svg>
