<svg width="900" height="770" viewBox="0 0 980 846" fill="none" xmlns="http://www.w3.org/2000/svg">
<path d="M232.235 0.0110913V266.385H318.375C362.708 266.385 397.112 254.341 421.456 230.263C445.933 206.307 458.243 172.168 458.243 127.835L364.824 102.827H456.659V102.694H499.662C509.058 102.694 516.604 95.1479 516.604 85.7517C516.604 76.3554 509.058 68.9426 499.662 68.9426H447.916C442.099 54.7818 433.889 42.7373 423.307 32.8203C400.149 10.9807 367.073 0 324.325 0H232.224L232.235 0.0110913Z" fill="white"/>
<path d="M137.885 272.08L0 786.712L166.462 831.444C252.08 854.336 324.724 848.906 384.403 815.034C435.75 786.058 473.59 737.891 497.812 670.4C451.362 636.926 439.318 592.726 439.318 592.726C466.177 623.43 506.144 644.339 506.144 644.339C506.144 644.339 506.543 644.871 506.543 645.004C588.317 692.373 714.025 711.963 887.367 594.322H908.409C930.636 594.322 948.631 576.46 948.631 554.222C948.631 550.909 948.099 547.607 947.435 544.56C941.351 546.41 934.869 547.474 928.11 547.474H722.213C658.035 567.186 579.829 575.396 520.549 531.462C518.167 495.473 507.983 463.185 490.111 434.464C456.626 380.203 398.542 341.965 315.97 319.87L137.863 272.102L137.885 272.08Z" fill="white"/>
<path d="M724.617 278.174C695.774 278.174 672.749 301.199 672.749 330.053V483.949C672.749 512.936 695.774 535.95 724.617 535.95H928.131C956.974 535.95 979.999 512.925 979.999 483.949V330.053C979.999 301.199 956.974 278.174 928.131 278.174H724.617Z" fill="#6941C6"/>
</svg>
