<svg width="20" height="20" viewBox="0 0 21 21" fill="none" xmlns="http://www.w3.org/2000/svg">
<path d="M1.399 12.74L2.799 11.34C2.98593 11.1568 3.23725 11.0541 3.499 11.0541C3.76075 11.0541 4.01207 11.1568 4.199 11.34L9.109 16.25V19.05H6.309L1.399 14.14C1.21577 13.9531 1.11314 13.7017 1.11314 13.44C1.11314 13.1782 1.21577 12.9269 1.399 12.74ZM7.109 5.04999C7.109 5.84111 7.3436 6.61447 7.78312 7.27227C8.22265 7.93006 8.84736 8.44276 9.57827 8.74551C10.3092 9.04826 11.1134 9.12747 11.8894 8.97313C12.6653 8.81879 13.378 8.43783 13.9374 7.87842C14.4968 7.31901 14.8778 6.60627 15.0321 5.83035C15.1865 5.05442 15.1073 4.25016 14.8045 3.51925C14.5018 2.78835 13.9891 2.16364 13.3313 1.72411C12.6735 1.28458 11.9001 1.04999 11.109 1.04999C10.0481 1.04999 9.03072 1.47141 8.28057 2.22156C7.53043 2.97171 7.109 3.98912 7.109 5.04999Z" stroke="#697B7B" stroke-width="1.4" stroke-linecap="round" stroke-linejoin="round"/>
<path d="M13.109 19.05H18.109C18.3742 19.05 18.6286 18.9446 18.8161 18.7571C19.0037 18.5696 19.109 18.3152 19.109 18.05C19.109 16.7239 18.5822 15.4521 17.6445 14.5145C16.7069 13.5768 15.4351 13.05 14.109 13.05H11.109" stroke="#697B7B" stroke-width="1.4" stroke-linecap="round" stroke-linejoin="round"/>
</svg>
