<svg width="21" height="20" viewBox="0 0 21 20" fill="none" xmlns="http://www.w3.org/2000/svg">
<path d="M1.89404 1.66699H3.34405C4.24405 1.66699 4.95238 2.44199 4.87738 3.33366L4.18571 11.6337C4.06904 12.992 5.14404 14.1587 6.5107 14.1587H15.3857C16.5857 14.1587 17.6357 13.1753 17.7274 11.9837L18.1774 5.73366C18.2774 4.35033 17.2274 3.22532 15.8357 3.22532H5.07738" stroke="#697B7B" stroke-width="1.5" stroke-miterlimit="10" stroke-linecap="round" stroke-linejoin="round"/>
<path d="M13.7692 18.3333C14.3445 18.3333 14.8109 17.867 14.8109 17.2917C14.8109 16.7164 14.3445 16.25 13.7692 16.25C13.1939 16.25 12.7275 16.7164 12.7275 17.2917C12.7275 17.867 13.1939 18.3333 13.7692 18.3333Z" stroke="#697B7B" stroke-width="1.5" stroke-miterlimit="10" stroke-linecap="round" stroke-linejoin="round"/>
<path d="M7.1027 18.3333C7.678 18.3333 8.14437 17.867 8.14437 17.2917C8.14437 16.7164 7.678 16.25 7.1027 16.25C6.52741 16.25 6.06104 16.7164 6.06104 17.2917C6.06104 17.867 6.52741 18.3333 7.1027 18.3333Z" stroke="#697B7B" stroke-width="1.5" stroke-miterlimit="10" stroke-linecap="round" stroke-linejoin="round"/>
<path d="M7.72754 6.66699H17.7275" stroke="#697B7B" stroke-width="1.5" stroke-miterlimit="10" stroke-linecap="round" stroke-linejoin="round"/>
</svg>
