<svg width="22" height="22" viewBox="0 0 22 22" fill="none" xmlns="http://www.w3.org/2000/svg">
<path d="M18.6801 11.4966C18.7237 11.1727 18.7472 10.8466 18.7502 10.52C18.7472 10.1934 18.7237 9.8673 18.6801 9.54346L20.8502 7.88819C20.9482 7.81526 21.0151 7.7097 21.0382 7.59169C21.0613 7.47368 21.039 7.3515 20.9755 7.24854L18.9206 3.77687C18.8611 3.67274 18.7646 3.59341 18.6492 3.55384C18.5338 3.51426 18.4075 3.51718 18.2942 3.56203L15.7331 4.56789C15.2002 4.17164 14.6175 3.84345 13.9991 3.59133L13.6132 0.939964C13.5961 0.822642 13.5359 0.715352 13.4437 0.638093C13.3515 0.560834 13.2336 0.518877 13.112 0.520043H8.99229C8.87068 0.518877 8.75278 0.560834 8.66057 0.638093C8.56836 0.715352 8.50813 0.822642 8.49111 0.939964L8.1052 3.59133C7.48599 3.84188 6.90304 4.17018 6.37113 4.56789L3.80009 3.56203C3.68674 3.51718 3.56048 3.51426 3.44508 3.55384C3.32968 3.59341 3.23313 3.67274 3.17361 3.77687L1.11879 7.24854C1.05524 7.3515 1.03289 7.47368 1.056 7.59169C1.07912 7.7097 1.14608 7.81526 1.24408 7.88819L3.40917 9.54346C3.36568 9.86731 3.34225 10.1934 3.339 10.52C3.34208 10.8466 3.36551 11.1727 3.40917 11.4966L1.24408 13.1518C1.14608 13.2248 1.07912 13.3303 1.056 13.4484C1.03289 13.5664 1.05524 13.6885 1.11879 13.7915L3.17361 17.2632C3.23313 17.3673 3.32968 17.4466 3.44508 17.4862C3.56048 17.5258 3.68674 17.5229 3.80009 17.478L6.36111 16.4722C6.89401 16.8684 7.47677 17.1966 8.09518 17.4487L8.48109 20.1001C8.49811 20.2174 8.55834 20.3247 8.65055 20.4019C8.74276 20.4792 8.86065 20.5212 8.98227 20.52H13.0919C13.2135 20.5212 13.3314 20.4792 13.4236 20.4019C13.5159 20.3247 13.5761 20.2174 13.5931 20.1001L13.979 17.4487C14.5982 17.1982 15.1812 16.8699 15.7131 16.4722L18.2741 17.478C18.3874 17.5229 18.5137 17.5258 18.6291 17.4862C18.7445 17.4466 18.8411 17.3673 18.9006 17.2632L20.9554 13.7915C21.019 13.6885 21.0413 13.5664 21.0182 13.4484C20.9951 13.3303 20.9281 13.2248 20.8301 13.1518L18.6801 11.4966ZM11.0471 14.0259C10.3352 14.0268 9.63898 13.822 9.04656 13.4374C8.45414 13.0528 7.99213 12.5056 7.71901 11.865C7.44588 11.2245 7.3739 10.5194 7.51218 9.83906C7.65046 9.15867 7.99279 8.53353 8.49584 8.04274C8.9989 7.55195 9.64007 7.21756 10.3382 7.08189C11.0364 6.94622 11.7602 7.01536 12.418 7.28057C13.0758 7.54578 13.6381 7.99513 14.0338 8.57177C14.4294 9.14841 14.6406 9.82642 14.6406 10.52C14.6412 10.9802 14.5488 11.436 14.3685 11.8613C14.1882 12.2866 13.9236 12.6731 13.5898 12.9987C13.2561 13.3243 12.8597 13.5827 12.4234 13.7589C11.9871 13.9352 11.5194 14.0259 11.0471 14.0259Z" stroke="#697B7B" stroke-linecap="round" stroke-linejoin="round"/>
</svg>
