<svg width="25" height="25" viewBox="0 0 25 25" fill="none" xmlns="http://www.w3.org/2000/svg">
<path d="M12.5 15.5C14.1569 15.5 15.5 14.1569 15.5 12.5C15.5 10.8431 14.1569 9.5 12.5 9.5C10.8431 9.5 9.5 10.8431 9.5 12.5C9.5 14.1569 10.8431 15.5 12.5 15.5Z" stroke="#697B7B" stroke-width="1.5" stroke-miterlimit="10" stroke-linecap="round" stroke-linejoin="round"/>
<path d="M2.5 13.3804V11.6204C2.5 10.5804 3.35 9.72043 4.4 9.72043C6.21 9.72043 6.95 8.44042 6.04 6.87042C5.52 5.97042 5.83 4.80042 6.74 4.28042L8.47 3.29042C9.26 2.82042 10.28 3.10042 10.75 3.89042L10.86 4.08042C11.76 5.65042 13.24 5.65042 14.15 4.08042L14.26 3.89042C14.73 3.10042 15.75 2.82042 16.54 3.29042L18.27 4.28042C19.18 4.80042 19.49 5.97042 18.97 6.87042C18.06 8.44042 18.8 9.72043 20.61 9.72043C21.65 9.72043 22.51 10.5704 22.51 11.6204V13.3804C22.51 14.4204 21.66 15.2804 20.61 15.2804C18.8 15.2804 18.06 16.5604 18.97 18.1304C19.49 19.0404 19.18 20.2004 18.27 20.7204L16.54 21.7104C15.75 22.1804 14.73 21.9004 14.26 21.1104L14.15 20.9204C13.25 19.3504 11.77 19.3504 10.86 20.9204L10.75 21.1104C10.28 21.9004 9.26 22.1804 8.47 21.7104L6.74 20.7204C5.83 20.2004 5.52 19.0304 6.04 18.1304C6.95 16.5604 6.21 15.2804 4.4 15.2804C3.35 15.2804 2.5 14.4204 2.5 13.3804Z" stroke="#697B7B" stroke-width="1.5" stroke-miterlimit="10" stroke-linecap="round" stroke-linejoin="round"/>
</svg>
