<svg width="21" height="20" viewBox="0 0 21 20" fill="none" xmlns="http://www.w3.org/2000/svg">
<path d="M17.7356 9.34961V13.0913C17.7356 16.8329 16.2439 18.333 12.4939 18.333H8.00231C7.51898 18.333 7.07728 18.308 6.66895 18.2497" stroke="#697B7B" stroke-width="1.5" stroke-linecap="round" stroke-linejoin="round"/>
<path d="M2.76074 12.933V9.34961" stroke="#697B7B" stroke-width="1.5" stroke-linecap="round" stroke-linejoin="round"/>
<path d="M10.2526 10.0003C11.7776 10.0003 12.9026 8.7587 12.7526 7.2337L12.1943 1.66699H8.30261L7.74429 7.2337C7.59429 8.7587 8.72763 10.0003 10.2526 10.0003Z" stroke="#697B7B" stroke-width="1.5" stroke-linecap="round" stroke-linejoin="round"/>
<path d="M15.5023 10.0003C17.1857 10.0003 18.419 8.63364 18.2523 6.95864L18.019 4.66697C17.719 2.50031 16.8856 1.66699 14.7023 1.66699H12.1606L12.744 7.50867C12.894 8.88367 14.1273 10.0003 15.5023 10.0003Z" stroke="#697B7B" stroke-width="1.5" stroke-linecap="round" stroke-linejoin="round"/>
<path d="M4.95253 10.0003C6.32753 10.0003 7.56919 8.88367 7.70252 7.50867L7.88588 5.66703L8.28586 1.66699H5.74421C3.56087 1.66699 2.72756 2.50031 2.42756 4.66697L2.1942 6.95864C2.02753 8.63364 3.2692 10.0003 4.95253 10.0003Z" stroke="#697B7B" stroke-width="1.5" stroke-linecap="round" stroke-linejoin="round"/>
<path d="M7.7277 15.8333C7.7277 16.4583 7.55269 17.05 7.24435 17.55C7.08602 17.8167 6.89435 18.0584 6.66935 18.25C6.64435 18.2834 6.61937 18.3083 6.58604 18.3333C6.00271 18.8583 5.23604 19.1667 4.39437 19.1667C3.3777 19.1667 2.46934 18.7083 1.86934 17.9916C1.85268 17.9666 1.82772 17.95 1.81106 17.925C1.71106 17.8083 1.61938 17.6834 1.54438 17.55C1.23605 17.05 1.06104 16.4583 1.06104 15.8333C1.06104 14.7833 1.54437 13.8417 2.31104 13.2333C2.4527 13.1167 2.60268 13.0167 2.76102 12.9333C3.24435 12.6583 3.8027 12.5 4.39437 12.5C5.2277 12.5 5.97768 12.8 6.56101 13.3083C6.66101 13.3833 6.7527 13.475 6.83603 13.5667C7.38603 14.1667 7.7277 14.9583 7.7277 15.8333Z" stroke="#697B7B" stroke-width="1.5" stroke-miterlimit="10" stroke-linecap="round" stroke-linejoin="round"/>
<path d="M5.63566 15.8164H3.15234" stroke="#697B7B" stroke-width="1.5" stroke-miterlimit="10" stroke-linecap="round" stroke-linejoin="round"/>
<path d="M4.39404 14.5996V17.0913" stroke="#697B7B" stroke-width="1.5" stroke-miterlimit="10" stroke-linecap="round" stroke-linejoin="round"/>
</svg>
