<svg width="40" height="41" viewBox="0 0 40 41" fill="none" xmlns="http://www.w3.org/2000/svg">
<rect y="0.5" width="40" height="40" rx="16" fill="black" fill-opacity="0.1"/>
<path d="M17.6331 19.5587C17.5498 19.5503 17.4498 19.5503 17.3581 19.5587C15.3748 19.492 13.7998 17.867 13.7998 15.867C13.7998 13.8253 15.4498 12.167 17.4998 12.167C19.5415 12.167 21.1998 13.8253 21.1998 15.867C21.1915 17.867 19.6165 19.492 17.6331 19.5587Z" stroke="#F7F7F7" stroke-width="1.5" stroke-linecap="round" stroke-linejoin="round"/>
<path d="M23.6752 13.833C25.2919 13.833 26.5919 15.1413 26.5919 16.7497C26.5919 18.3247 25.3419 19.608 23.7836 19.6663C23.7169 19.658 23.6419 19.658 23.5669 19.6663" stroke="#F7F7F7" stroke-width="1.5" stroke-linecap="round" stroke-linejoin="round"/>
<path d="M13.4666 22.633C11.4499 23.983 11.4499 26.183 13.4666 27.5247C15.7583 29.058 19.5166 29.058 21.8083 27.5247C23.8249 26.1747 23.8249 23.9747 21.8083 22.633C19.5249 21.108 15.7666 21.108 13.4666 22.633Z" stroke="#F7F7F7" stroke-width="1.5" stroke-linecap="round" stroke-linejoin="round"/>
<path d="M25.2832 27.167C25.8832 27.042 26.4499 26.8003 26.9165 26.442C28.2165 25.467 28.2165 23.8587 26.9165 22.8837C26.4582 22.5337 25.8999 22.3003 25.3082 22.167" stroke="#F7F7F7" stroke-width="1.5" stroke-linecap="round" stroke-linejoin="round"/>
</svg>
