<svg width="40" height="41" viewBox="0 0 40 41" fill="none" xmlns="http://www.w3.org/2000/svg">
<rect y="0.5" width="40" height="40" rx="16" fill="black" fill-opacity="0.1"/>
<path d="M17.7583 22.7503L19.0083 24.0003L22.3416 20.667" stroke="#F7F7F7" stroke-width="1.5" stroke-linecap="round" stroke-linejoin="round"/>
<path d="M18.3332 15.5003H21.6665C23.3332 15.5003 23.3332 14.667 23.3332 13.8337C23.3332 12.167 22.4998 12.167 21.6665 12.167H18.3332C17.4998 12.167 16.6665 12.167 16.6665 13.8337C16.6665 15.5003 17.4998 15.5003 18.3332 15.5003Z" stroke="#F7F7F7" stroke-width="1.5" stroke-miterlimit="10" stroke-linecap="round" stroke-linejoin="round"/>
<path d="M23.3333 13.8496C26.1083 13.9996 27.5 15.0246 27.5 18.8329V23.8329C27.5 27.1663 26.6667 28.8329 22.5 28.8329H17.5C13.3333 28.8329 12.5 27.1663 12.5 23.8329V18.8329C12.5 15.0329 13.8917 13.9996 16.6667 13.8496" stroke="#F7F7F7" stroke-width="1.5" stroke-miterlimit="10" stroke-linecap="round" stroke-linejoin="round"/>
</svg>
