<svg width="40" height="41" viewBox="0 0 40 41" fill="none" xmlns="http://www.w3.org/2000/svg">
<rect y="0.5" width="40" height="40" rx="16" fill="black" fill-opacity="0.1"/>
<path d="M12.6416 16.7002L19.9999 20.9585L27.3083 16.7252" stroke="#F7F7F7" stroke-width="1.5" stroke-linecap="round" stroke-linejoin="round"/>
<path d="M20 28.5085V20.9502" stroke="#F7F7F7" stroke-width="1.5" stroke-linecap="round" stroke-linejoin="round"/>
<path d="M18.275 12.5671L13.825 15.0337C12.8167 15.5921 11.9917 16.9921 11.9917 18.1421V22.8504C11.9917 24.0004 12.8167 25.4004 13.825 25.9587L18.275 28.4337C19.225 28.9587 20.7834 28.9587 21.7334 28.4337L26.1834 25.9587C27.1917 25.4004 28.0167 24.0004 28.0167 22.8504V18.1421C28.0167 16.9921 27.1917 15.5921 26.1834 15.0337L21.7334 12.5587C20.775 12.0337 19.225 12.0337 18.275 12.5671Z" stroke="#F7F7F7" stroke-width="1.5" stroke-linecap="round" stroke-linejoin="round"/>
</svg>
