<svg width="40" height="41" viewBox="0 0 40 41" fill="none" xmlns="http://www.w3.org/2000/svg">
<rect y="0.5" width="40" height="40" rx="16" fill="black" fill-opacity="0.1"/>
<path d="M11.6665 12.167H13.1165C14.0165 12.167 14.7248 12.942 14.6498 13.8337L13.9582 22.1337C13.8415 23.492 14.9165 24.6587 16.2832 24.6587H25.1582C26.3582 24.6587 27.4082 23.6753 27.4998 22.4837L27.9498 16.2337C28.0498 14.8503 26.9998 13.7253 25.6082 13.7253H14.8498" stroke="#F7F7F7" stroke-width="1.5" stroke-miterlimit="10" stroke-linecap="round" stroke-linejoin="round"/>
<path d="M23.5417 28.8333C24.117 28.8333 24.5833 28.367 24.5833 27.7917C24.5833 27.2164 24.117 26.75 23.5417 26.75C22.9664 26.75 22.5 27.2164 22.5 27.7917C22.5 28.367 22.9664 28.8333 23.5417 28.8333Z" stroke="#F7F7F7" stroke-width="1.5" stroke-miterlimit="10" stroke-linecap="round" stroke-linejoin="round"/>
<path d="M16.8752 28.8333C17.4505 28.8333 17.9168 28.367 17.9168 27.7917C17.9168 27.2164 17.4505 26.75 16.8752 26.75C16.2999 26.75 15.8335 27.2164 15.8335 27.7917C15.8335 28.367 16.2999 28.8333 16.8752 28.8333Z" stroke="#F7F7F7" stroke-width="1.5" stroke-miterlimit="10" stroke-linecap="round" stroke-linejoin="round"/>
<path d="M17.5 17.167H27.5" stroke="#F7F7F7" stroke-width="1.5" stroke-miterlimit="10" stroke-linecap="round" stroke-linejoin="round"/>
</svg>
