<svg width="48" height="32" viewBox="0 0 48 32" fill="none" xmlns="http://www.w3.org/2000/svg">
<rect x="16" width="32" height="32" rx="15" fill="#9E77ED"/>
<path d="M22 10.375C22 9.87772 22.1975 9.40081 22.5492 9.04917C22.9008 8.69754 23.3777 8.5 23.875 8.5H35.125C35.6223 8.5 36.0992 8.69754 36.4508 9.04917C36.8025 9.40081 37 9.87772 37 10.375V12.25H38.275C38.5559 12.2503 38.8332 12.3136 39.0863 12.4354C39.3395 12.5572 39.562 12.7344 39.7375 12.9538L41.5887 15.2663C41.8551 15.599 42.0002 16.0125 42 16.4387V19.125C42 19.6223 41.8025 20.0992 41.4508 20.4508C41.0992 20.8025 40.6223 21 40.125 21H39.5C39.5 21.663 39.2366 22.2989 38.7678 22.7678C38.2989 23.2366 37.663 23.5 37 23.5C36.337 23.5 35.7011 23.2366 35.2322 22.7678C34.7634 22.2989 34.5 21.663 34.5 21H28.25C28.2507 21.3332 28.1848 21.6632 28.0562 21.9706C27.9275 22.278 27.7387 22.5566 27.5008 22.79C27.2629 23.0233 26.9808 23.2068 26.671 23.3296C26.3612 23.4523 26.03 23.5119 25.6969 23.5048C25.3637 23.4977 25.0353 23.4241 24.731 23.2883C24.4267 23.1525 24.1527 22.9572 23.9249 22.7139C23.6972 22.4707 23.5204 22.1843 23.4049 21.8717C23.2894 21.5592 23.2376 21.2266 23.2525 20.8937C22.8863 20.7649 22.5692 20.5255 22.3448 20.2087C22.1205 19.8919 22 19.5132 22 19.125V10.375ZM23.6175 19.695C23.8437 19.3253 24.1622 19.0208 24.5417 18.8113C24.9211 18.6018 25.3485 18.4946 25.7819 18.5001C26.2153 18.5057 26.6398 18.6238 27.0138 18.8429C27.3877 19.0621 27.6983 19.3746 27.915 19.75H34.835C35.0544 19.37 35.37 19.0544 35.75 18.835V10.375C35.75 10.2092 35.6842 10.0503 35.5669 9.93306C35.4497 9.81585 35.2908 9.75 35.125 9.75H23.875C23.7092 9.75 23.5503 9.81585 23.4331 9.93306C23.3158 10.0503 23.25 10.2092 23.25 10.375V19.125C23.2499 19.2453 23.2845 19.3631 23.3497 19.4642C23.4149 19.5653 23.5079 19.6454 23.6175 19.695ZM37 18.5C37.4388 18.5 37.8699 18.6155 38.25 18.835C38.63 19.0544 38.9456 19.37 39.165 19.75H40.125C40.2908 19.75 40.4497 19.6842 40.5669 19.5669C40.6842 19.4497 40.75 19.2908 40.75 19.125V16.4375C40.7497 16.2957 40.7013 16.1581 40.6125 16.0475L38.7625 13.735C38.704 13.6618 38.6299 13.6027 38.5455 13.562C38.4611 13.5213 38.3687 13.5001 38.275 13.5H37V18.5ZM25.75 19.75C25.4185 19.75 25.1005 19.8817 24.8661 20.1161C24.6317 20.3505 24.5 20.6685 24.5 21C24.5 21.3315 24.6317 21.6495 24.8661 21.8839C25.1005 22.1183 25.4185 22.25 25.75 22.25C26.0815 22.25 26.3995 22.1183 26.6339 21.8839C26.8683 21.6495 27 21.3315 27 21C27 20.6685 26.8683 20.3505 26.6339 20.1161C26.3995 19.8817 26.0815 19.75 25.75 19.75ZM37 19.75C36.6685 19.75 36.3505 19.8817 36.1161 20.1161C35.8817 20.3505 35.75 20.6685 35.75 21C35.75 21.3315 35.8817 21.6495 36.1161 21.8839C36.3505 22.1183 36.6685 22.25 37 22.25C37.3315 22.25 37.6495 22.1183 37.8839 21.8839C38.1183 21.6495 38.25 21.3315 38.25 21C38.25 20.6685 38.1183 20.3505 37.8839 20.1161C37.6495 19.8817 37.3315 19.75 37 19.75Z" fill="#FCFCFD"/>
</svg>
